<svg width="182" height="63" viewBox="0 0 182 63" fill="none" xmlns="http://www.w3.org/2000/svg">
<rect y="1" width="60.7587" height="61" rx="30.3794" fill="#6F2977"/>
<path d="M32.8005 20.4142C31.6316 19.4275 30.1298 18.9249 28.6025 19.0091C27.8498 19.0083 27.1048 19.1593 26.4118 19.4531C25.7189 19.747 25.0924 20.1775 24.5697 20.7191C24.047 21.2606 23.6389 21.902 23.3698 22.605C23.1008 23.3079 22.9763 24.0578 23.0037 24.81C23.0072 25.9951 23.4007 27.1461 24.1235 28.0853C24.8463 29.0246 25.8581 29.6997 27.0028 30.0066C28.5911 30.4173 30.0405 31.2454 31.2008 32.405C33.0815 35.3742 33.7936 38.9355 33.1993 42.3996C33.1711 42.5836 33.1799 42.7715 33.2252 42.9521C33.2705 43.1327 33.3513 43.3025 33.4631 43.4514C33.5748 43.6004 33.7151 43.7256 33.8758 43.8196C34.0366 43.9137 34.2144 43.9747 34.399 43.9992C34.7623 44.0107 35.1186 43.8981 35.4094 43.6801C35.7002 43.462 35.908 43.1514 35.9987 42.7995C38.5307 33.6044 38.3308 26.9414 35.3988 22.8104C34.6557 21.8878 33.7801 21.0803 32.8005 20.4142Z" fill="white"/>
<path d="M104.091 12.556V33H98.4668V30.568C97.6815 31.4547 96.7441 32.1387 95.6548 32.62C94.5655 33.076 93.3875 33.304 92.1208 33.304C89.4355 33.304 87.3075 32.5313 85.7368 30.986C84.1661 29.4407 83.3808 27.148 83.3808 24.108V12.556H89.3088V23.234C89.3088 26.5273 90.6895 28.174 93.4508 28.174C94.8695 28.174 96.0095 27.718 96.8708 26.806C97.7321 25.8687 98.1628 24.488 98.1628 22.664V12.556H104.091ZM135.765 12.252C138.323 12.252 140.35 13.012 141.845 14.532C143.365 16.0267 144.125 18.2813 144.125 21.296V33H138.197V22.208C138.197 20.5867 137.855 19.3833 137.171 18.598C136.512 17.7873 135.562 17.382 134.321 17.382C132.927 17.382 131.825 17.838 131.015 18.75C130.204 19.6367 129.799 20.9667 129.799 22.74V33H123.871V22.208C123.871 18.9907 122.579 17.382 119.995 17.382C118.627 17.382 117.537 17.838 116.727 18.75C115.916 19.6367 115.511 20.9667 115.511 22.74V33H109.583V12.556H115.245V14.912C116.005 14.0507 116.929 13.392 118.019 12.936C119.133 12.48 120.349 12.252 121.667 12.252C123.111 12.252 124.415 12.5433 125.581 13.126C126.746 13.6833 127.683 14.5067 128.393 15.596C129.229 14.532 130.28 13.7087 131.547 13.126C132.839 12.5433 134.245 12.252 135.765 12.252ZM157.684 12.252C160.851 12.252 163.283 13.012 164.98 14.532C166.677 16.0267 167.526 18.294 167.526 21.334V33H161.978V30.454C160.863 32.354 158.786 33.304 155.746 33.304C154.175 33.304 152.807 33.038 151.642 32.506C150.502 31.974 149.628 31.2393 149.02 30.302C148.412 29.3647 148.108 28.3007 148.108 27.11C148.108 25.21 148.817 23.7153 150.236 22.626C151.68 21.5367 153.897 20.992 156.886 20.992H161.598C161.598 19.7 161.205 18.712 160.42 18.028C159.635 17.3187 158.457 16.964 156.886 16.964C155.797 16.964 154.72 17.1413 153.656 17.496C152.617 17.8253 151.731 18.2813 150.996 18.864L148.868 14.722C149.983 13.9367 151.313 13.3287 152.858 12.898C154.429 12.4673 156.037 12.252 157.684 12.252ZM157.228 29.314C158.241 29.314 159.141 29.086 159.926 28.63C160.711 28.1487 161.269 27.452 161.598 26.54V24.45H157.532C155.1 24.45 153.884 25.248 153.884 26.844C153.884 27.604 154.175 28.212 154.758 28.668C155.366 29.0987 156.189 29.314 157.228 29.314ZM172.891 12.556H178.819V33H172.891V12.556ZM175.855 9.706C174.766 9.706 173.879 9.38933 173.195 8.756C172.511 8.12267 172.169 7.33733 172.169 6.4C172.169 5.46266 172.511 4.67733 173.195 4.044C173.879 3.41066 174.766 3.094 175.855 3.094C176.945 3.094 177.831 3.398 178.515 4.006C179.199 4.614 179.541 5.374 179.541 6.286C179.541 7.274 179.199 8.09733 178.515 8.756C177.831 9.38933 176.945 9.706 175.855 9.706ZM90.0088 44.75C91.2421 44.75 92.3588 45.0333 93.3588 45.6C94.3588 46.15 95.1421 46.9333 95.7088 47.95C96.2755 48.9667 96.5588 50.125 96.5588 51.425C96.5588 52.7417 96.2755 53.9083 95.7088 54.925C95.1421 55.9417 94.3588 56.7333 93.3588 57.3C92.3755 57.85 91.2588 58.125 90.0088 58.125C88.9421 58.125 87.9755 57.9083 87.1088 57.475C86.2588 57.025 85.5588 56.375 85.0088 55.525V62.85H83.2338V44.85H84.9338V47.45C85.4671 46.5833 86.1671 45.9167 87.0338 45.45C87.9171 44.9833 88.9088 44.75 90.0088 44.75ZM89.8838 56.55C90.8005 56.55 91.6338 56.3417 92.3838 55.925C93.1338 55.4917 93.7171 54.8833 94.1338 54.1C94.5671 53.3167 94.7838 52.425 94.7838 51.425C94.7838 50.425 94.5671 49.5417 94.1338 48.775C93.7171 47.9917 93.1338 47.3833 92.3838 46.95C91.6338 46.5167 90.8005 46.3 89.8838 46.3C88.9505 46.3 88.1088 46.5167 87.3588 46.95C86.6255 47.3833 86.0421 47.9917 85.6088 48.775C85.1921 49.5417 84.9838 50.425 84.9838 51.425C84.9838 52.425 85.1921 53.3167 85.6088 54.1C86.0421 54.8833 86.6255 55.4917 87.3588 55.925C88.1088 56.3417 88.9505 56.55 89.8838 56.55ZM101.877 47.425C102.294 46.5417 102.91 45.875 103.727 45.425C104.56 44.975 105.585 44.75 106.802 44.75V46.475L106.377 46.45C104.994 46.45 103.91 46.875 103.127 47.725C102.344 48.575 101.952 49.7667 101.952 51.3V58H100.177V44.85H101.877V47.425ZM115.269 58.125C114.002 58.125 112.861 57.8417 111.844 57.275C110.827 56.6917 110.027 55.8917 109.444 54.875C108.861 53.8583 108.569 52.7083 108.569 51.425C108.569 50.1417 108.861 48.9917 109.444 47.975C110.027 46.9583 110.827 46.1667 111.844 45.6C112.861 45.0333 114.002 44.75 115.269 44.75C116.536 44.75 117.677 45.0333 118.694 45.6C119.711 46.1667 120.502 46.9583 121.069 47.975C121.652 48.9917 121.944 50.1417 121.944 51.425C121.944 52.7083 121.652 53.8583 121.069 54.875C120.502 55.8917 119.711 56.6917 118.694 57.275C117.677 57.8417 116.536 58.125 115.269 58.125ZM115.269 56.55C116.202 56.55 117.036 56.3417 117.769 55.925C118.519 55.4917 119.102 54.8833 119.519 54.1C119.936 53.3167 120.144 52.425 120.144 51.425C120.144 50.425 119.936 49.5333 119.519 48.75C119.102 47.9667 118.519 47.3667 117.769 46.95C117.036 46.5167 116.202 46.3 115.269 46.3C114.336 46.3 113.494 46.5167 112.744 46.95C112.011 47.3667 111.427 47.9667 110.994 48.75C110.577 49.5333 110.369 50.425 110.369 51.425C110.369 52.425 110.577 53.3167 110.994 54.1C111.427 54.8833 112.011 55.4917 112.744 55.925C113.494 56.3417 114.336 56.55 115.269 56.55ZM123.618 62.975C123.068 62.975 122.551 62.9 122.068 62.75C121.568 62.6167 121.159 62.4083 120.843 62.125L121.468 60.775C121.984 61.225 122.668 61.45 123.518 61.45C124.218 61.45 124.751 61.2417 125.118 60.825C125.501 60.4083 125.693 59.7917 125.693 58.975V44.85H127.468V58.975C127.468 60.2083 127.134 61.1833 126.468 61.9C125.801 62.6167 124.851 62.975 123.618 62.975ZM126.593 41.95C126.226 41.95 125.918 41.825 125.668 41.575C125.418 41.325 125.293 41.025 125.293 40.675C125.293 40.3417 125.418 40.05 125.668 39.8C125.918 39.55 126.226 39.425 126.593 39.425C126.959 39.425 127.268 39.55 127.518 39.8C127.768 40.0333 127.893 40.3167 127.893 40.65C127.893 41.0167 127.768 41.325 127.518 41.575C127.268 41.825 126.959 41.95 126.593 41.95ZM143.878 51.975H132.878C132.978 53.3417 133.503 54.45 134.453 55.3C135.403 56.1333 136.603 56.55 138.053 56.55C138.87 56.55 139.62 56.4083 140.303 56.125C140.986 55.825 141.578 55.3917 142.078 54.825L143.078 55.975C142.495 56.675 141.761 57.2083 140.878 57.575C140.011 57.9417 139.053 58.125 138.003 58.125C136.653 58.125 135.453 57.8417 134.403 57.275C133.37 56.6917 132.561 55.8917 131.978 54.875C131.395 53.8583 131.103 52.7083 131.103 51.425C131.103 50.1417 131.378 48.9917 131.928 47.975C132.495 46.9583 133.261 46.1667 134.228 45.6C135.211 45.0333 136.311 44.75 137.528 44.75C138.745 44.75 139.836 45.0333 140.803 45.6C141.77 46.1667 142.528 46.9583 143.078 47.975C143.628 48.975 143.903 50.125 143.903 51.425L143.878 51.975ZM137.528 46.275C136.261 46.275 135.195 46.6833 134.328 47.5C133.478 48.3 132.995 49.35 132.878 50.65H142.203C142.086 49.35 141.595 48.3 140.728 47.5C139.878 46.6833 138.811 46.275 137.528 46.275ZM152.966 58.125C151.666 58.125 150.499 57.8417 149.466 57.275C148.449 56.7083 147.649 55.9167 147.066 54.9C146.483 53.8667 146.191 52.7083 146.191 51.425C146.191 50.1417 146.483 48.9917 147.066 47.975C147.649 46.9583 148.449 46.1667 149.466 45.6C150.499 45.0333 151.666 44.75 152.966 44.75C154.099 44.75 155.108 44.975 155.991 45.425C156.891 45.8583 157.599 46.5 158.116 47.35L156.791 48.25C156.358 47.6 155.808 47.1167 155.141 46.8C154.474 46.4667 153.749 46.3 152.966 46.3C152.016 46.3 151.158 46.5167 150.391 46.95C149.641 47.3667 149.049 47.9667 148.616 48.75C148.199 49.5333 147.991 50.425 147.991 51.425C147.991 52.4417 148.199 53.3417 148.616 54.125C149.049 54.8917 149.641 55.4917 150.391 55.925C151.158 56.3417 152.016 56.55 152.966 56.55C153.749 56.55 154.474 56.3917 155.141 56.075C155.808 55.7583 156.358 55.275 156.791 54.625L158.116 55.525C157.599 56.375 156.891 57.025 155.991 57.475C155.091 57.9083 154.083 58.125 152.966 58.125ZM168.674 57.2C168.341 57.5 167.924 57.7333 167.424 57.9C166.941 58.05 166.433 58.125 165.899 58.125C164.666 58.125 163.716 57.7917 163.049 57.125C162.383 56.4583 162.049 55.5167 162.049 54.3V46.35H159.699V44.85H162.049V41.975H163.824V44.85H167.824V46.35H163.824V54.2C163.824 54.9833 164.016 55.5833 164.399 56C164.799 56.4 165.366 56.6 166.099 56.6C166.466 56.6 166.816 56.5417 167.149 56.425C167.499 56.3083 167.799 56.1417 168.049 55.925L168.674 57.2ZM175.431 58.125C174.364 58.125 173.339 57.975 172.356 57.675C171.389 57.3583 170.631 56.9667 170.081 56.5L170.881 55.1C171.431 55.5333 172.122 55.8917 172.956 56.175C173.789 56.4417 174.656 56.575 175.556 56.575C176.756 56.575 177.639 56.3917 178.206 56.025C178.789 55.6417 179.081 55.1083 179.081 54.425C179.081 53.9417 178.922 53.5667 178.606 53.3C178.289 53.0167 177.889 52.8083 177.406 52.675C176.922 52.525 176.281 52.3833 175.481 52.25C174.414 52.05 173.556 51.85 172.906 51.65C172.256 51.4333 171.697 51.075 171.231 50.575C170.781 50.075 170.556 49.3833 170.556 48.5C170.556 47.4 171.014 46.5 171.931 45.8C172.847 45.1 174.122 44.75 175.756 44.75C176.606 44.75 177.456 44.8667 178.306 45.1C179.156 45.3167 179.856 45.6083 180.406 45.975L179.631 47.4C178.547 46.65 177.256 46.275 175.756 46.275C174.622 46.275 173.764 46.475 173.181 46.875C172.614 47.275 172.331 47.8 172.331 48.45C172.331 48.95 172.489 49.35 172.806 49.65C173.139 49.95 173.547 50.175 174.031 50.325C174.514 50.4583 175.181 50.6 176.031 50.75C177.081 50.95 177.922 51.15 178.556 51.35C179.189 51.55 179.731 51.8917 180.181 52.375C180.631 52.8583 180.856 53.525 180.856 54.375C180.856 55.525 180.372 56.4417 179.406 57.125C178.456 57.7917 177.131 58.125 175.431 58.125Z" fill="white"/>
</svg>
