<svg width="182" height="63" viewBox="0 0 182 63" fill="none" xmlns="http://www.w3.org/2000/svg">
<rect y="1" width="60.7587" height="61" rx="30.3794" fill="#6F2977"/>
<path d="M32.8005 20.4142C31.6316 19.4275 30.1298 18.9249 28.6025 19.0091C27.8498 19.0083 27.1048 19.1593 26.4118 19.4531C25.7189 19.747 25.0924 20.1775 24.5697 20.7191C24.047 21.2606 23.6389 21.902 23.3698 22.605C23.1008 23.3079 22.9763 24.0578 23.0037 24.81C23.0072 25.9951 23.4007 27.1461 24.1235 28.0853C24.8463 29.0246 25.8581 29.6997 27.0028 30.0066C28.5911 30.4173 30.0405 31.2454 31.2008 32.405C33.0815 35.3742 33.7936 38.9355 33.1993 42.3996C33.1711 42.5836 33.1799 42.7715 33.2252 42.9521C33.2705 43.1327 33.3513 43.3025 33.4631 43.4514C33.5748 43.6004 33.7151 43.7256 33.8758 43.8196C34.0366 43.9137 34.2144 43.9747 34.399 43.9992C34.7623 44.0107 35.1186 43.8981 35.4094 43.6801C35.7002 43.462 35.908 43.1514 35.9987 42.7995C38.5307 33.6044 38.3308 26.9414 35.3988 22.8104C34.6557 21.8878 33.7801 21.0803 32.8005 20.4142Z" fill="white"/>
<path d="M92.1208 33.304C90.4235 33.304 88.9035 32.9747 87.5608 32.316C86.2435 31.6573 85.2175 30.6567 84.4828 29.314C83.7481 27.946 83.3808 26.2107 83.3808 24.108V12.556H89.3088V23.234C89.3088 24.9313 89.6635 26.1853 90.3728 26.996C91.1075 27.7813 92.1335 28.174 93.4508 28.174C94.3628 28.174 95.1735 27.984 95.8828 27.604C96.5921 27.1987 97.1495 26.5907 97.5548 25.78C97.9601 24.944 98.1628 23.9053 98.1628 22.664V12.556H104.091V33H98.4668V27.376L99.4928 29.01C98.8088 30.4287 97.7955 31.5053 96.4528 32.24C95.1355 32.9493 93.6915 33.304 92.1208 33.304ZM135.765 12.252C137.386 12.252 138.817 12.5813 140.059 13.24C141.325 13.8733 142.313 14.8613 143.023 16.204C143.757 17.5213 144.125 19.2187 144.125 21.296V33H138.197V22.208C138.197 20.5613 137.855 19.3453 137.171 18.56C136.487 17.7747 135.524 17.382 134.283 17.382C133.421 17.382 132.649 17.5847 131.965 17.99C131.281 18.37 130.749 18.9527 130.369 19.738C129.989 20.5233 129.799 21.524 129.799 22.74V33H123.871V22.208C123.871 20.5613 123.529 19.3453 122.845 18.56C122.186 17.7747 121.236 17.382 119.995 17.382C119.133 17.382 118.361 17.5847 117.677 17.99C116.993 18.37 116.461 18.9527 116.081 19.738C115.701 20.5233 115.511 21.524 115.511 22.74V33H109.583V12.556H115.245V18.142L114.181 16.508C114.89 15.1147 115.891 14.0633 117.183 13.354C118.5 12.6193 119.995 12.252 121.667 12.252C123.541 12.252 125.175 12.7333 126.569 13.696C127.987 14.6333 128.925 16.0773 129.381 18.028L127.291 17.458C127.975 15.862 129.064 14.5953 130.559 13.658C132.079 12.7207 133.814 12.252 135.765 12.252ZM161.978 33V29.01L161.598 28.136V20.992C161.598 19.7253 161.205 18.7373 160.42 18.028C159.66 17.3187 158.482 16.964 156.886 16.964C155.797 16.964 154.72 17.1413 153.656 17.496C152.617 17.8253 151.731 18.2813 150.996 18.864L148.868 14.722C149.983 13.9367 151.325 13.3287 152.896 12.898C154.467 12.4673 156.063 12.252 157.684 12.252C160.8 12.252 163.219 12.9867 164.942 14.456C166.665 15.9253 167.526 18.218 167.526 21.334V33H161.978ZM155.746 33.304C154.15 33.304 152.782 33.038 151.642 32.506C150.502 31.9487 149.628 31.2013 149.02 30.264C148.412 29.3267 148.108 28.2753 148.108 27.11C148.108 25.894 148.399 24.83 148.982 23.918C149.59 23.006 150.54 22.2967 151.832 21.79C153.124 21.258 154.809 20.992 156.886 20.992H162.32V24.45H157.532C156.139 24.45 155.176 24.678 154.644 25.134C154.137 25.59 153.884 26.16 153.884 26.844C153.884 27.604 154.175 28.212 154.758 28.668C155.366 29.0987 156.189 29.314 157.228 29.314C158.216 29.314 159.103 29.086 159.888 28.63C160.673 28.1487 161.243 27.452 161.598 26.54L162.51 29.276C162.079 30.5933 161.294 31.594 160.154 32.278C159.014 32.962 157.545 33.304 155.746 33.304ZM172.891 33V12.556H178.819V33H172.891ZM175.855 9.706C174.766 9.706 173.879 9.38933 173.195 8.756C172.511 8.12267 172.169 7.33733 172.169 6.4C172.169 5.46266 172.511 4.67733 173.195 4.044C173.879 3.41066 174.766 3.094 175.855 3.094C176.945 3.094 177.831 3.398 178.515 4.006C179.199 4.58867 179.541 5.34867 179.541 6.286C179.541 7.274 179.199 8.09733 178.515 8.756C177.857 9.38933 176.97 9.706 175.855 9.706ZM90.0088 58.125C88.8755 58.125 87.8505 57.8667 86.9338 57.35C86.0171 56.8167 85.2838 56.0583 84.7338 55.075C84.2005 54.075 83.9338 52.8583 83.9338 51.425C83.9338 49.9917 84.2005 48.7833 84.7338 47.8C85.2671 46.8 85.9921 46.0417 86.9088 45.525C87.8255 45.0083 88.8588 44.75 90.0088 44.75C91.2588 44.75 92.3755 45.0333 93.3588 45.6C94.3588 46.15 95.1421 46.9333 95.7088 47.95C96.2755 48.95 96.5588 50.1083 96.5588 51.425C96.5588 52.7583 96.2755 53.925 95.7088 54.925C95.1421 55.925 94.3588 56.7083 93.3588 57.275C92.3755 57.8417 91.2588 58.125 90.0088 58.125ZM83.2338 62.85V44.875H84.9338V48.825L84.7588 51.45L85.0088 54.1V62.85H83.2338ZM89.8838 56.55C90.8171 56.55 91.6505 56.3417 92.3838 55.925C93.1171 55.4917 93.7005 54.8917 94.1338 54.125C94.5671 53.3417 94.7838 52.4417 94.7838 51.425C94.7838 50.4083 94.5671 49.5167 94.1338 48.75C93.7005 47.9833 93.1171 47.3833 92.3838 46.95C91.6505 46.5167 90.8171 46.3 89.8838 46.3C88.9505 46.3 88.1088 46.5167 87.3588 46.95C86.6255 47.3833 86.0421 47.9833 85.6088 48.75C85.1921 49.5167 84.9838 50.4083 84.9838 51.425C84.9838 52.4417 85.1921 53.3417 85.6088 54.125C86.0421 54.8917 86.6255 55.4917 87.3588 55.925C88.1088 56.3417 88.9505 56.55 89.8838 56.55ZM100.177 58V44.875H101.877V48.45L101.702 47.825C102.069 46.825 102.685 46.0667 103.552 45.55C104.419 45.0167 105.494 44.75 106.777 44.75V46.475C106.71 46.475 106.644 46.475 106.577 46.475C106.51 46.4583 106.444 46.45 106.377 46.45C104.994 46.45 103.91 46.875 103.127 47.725C102.344 48.5583 101.952 49.75 101.952 51.3V58H100.177ZM115.244 58.125C113.977 58.125 112.836 57.8417 111.819 57.275C110.819 56.6917 110.027 55.9 109.444 54.9C108.861 53.8833 108.569 52.725 108.569 51.425C108.569 50.1083 108.861 48.95 109.444 47.95C110.027 46.95 110.819 46.1667 111.819 45.6C112.819 45.0333 113.961 44.75 115.244 44.75C116.544 44.75 117.694 45.0333 118.694 45.6C119.711 46.1667 120.502 46.95 121.069 47.95C121.652 48.95 121.944 50.1083 121.944 51.425C121.944 52.725 121.652 53.8833 121.069 54.9C120.502 55.9 119.711 56.6917 118.694 57.275C117.677 57.8417 116.527 58.125 115.244 58.125ZM115.244 56.55C116.194 56.55 117.036 56.3417 117.769 55.925C118.502 55.4917 119.077 54.8917 119.494 54.125C119.927 53.3417 120.144 52.4417 120.144 51.425C120.144 50.3917 119.927 49.4917 119.494 48.725C119.077 47.9583 118.502 47.3667 117.769 46.95C117.036 46.5167 116.202 46.3 115.269 46.3C114.336 46.3 113.502 46.5167 112.769 46.95C112.036 47.3667 111.452 47.9583 111.019 48.725C110.586 49.4917 110.369 50.3917 110.369 51.425C110.369 52.4417 110.586 53.3417 111.019 54.125C111.452 54.8917 112.036 55.4917 112.769 55.925C113.502 56.3417 114.327 56.55 115.244 56.55ZM123.618 62.975C123.084 62.975 122.576 62.9 122.093 62.75C121.593 62.6167 121.176 62.4083 120.843 62.125L121.468 60.775C122.001 61.225 122.684 61.45 123.518 61.45C124.218 61.45 124.751 61.2417 125.118 60.825C125.501 60.4083 125.693 59.7917 125.693 58.975V44.875H127.468V58.975C127.468 60.1917 127.134 61.1583 126.468 61.875C125.818 62.6083 124.868 62.975 123.618 62.975ZM126.593 41.975C126.226 41.975 125.918 41.85 125.668 41.6C125.418 41.35 125.293 41.05 125.293 40.7C125.293 40.35 125.418 40.0583 125.668 39.825C125.918 39.575 126.226 39.45 126.593 39.45C126.959 39.45 127.268 39.5667 127.518 39.8C127.768 40.0333 127.893 40.325 127.893 40.675C127.893 41.0417 127.768 41.35 127.518 41.6C127.284 41.85 126.976 41.975 126.593 41.975ZM138.003 58.125C136.636 58.125 135.436 57.8417 134.403 57.275C133.37 56.6917 132.561 55.9 131.978 54.9C131.395 53.8833 131.103 52.725 131.103 51.425C131.103 50.125 131.378 48.975 131.928 47.975C132.495 46.975 133.261 46.1917 134.228 45.625C135.211 45.0417 136.311 44.75 137.528 44.75C138.761 44.75 139.853 45.0333 140.803 45.6C141.77 46.15 142.528 46.9333 143.078 47.95C143.628 48.95 143.903 50.1083 143.903 51.425C143.903 51.5083 143.895 51.6 143.878 51.7C143.878 51.7833 143.878 51.875 143.878 51.975H132.453V50.65H142.928L142.228 51.175C142.228 50.225 142.02 49.3833 141.603 48.65C141.203 47.9 140.653 47.3167 139.953 46.9C139.253 46.4833 138.445 46.275 137.528 46.275C136.628 46.275 135.82 46.4833 135.103 46.9C134.386 47.3167 133.828 47.9 133.428 48.65C133.028 49.4 132.828 50.2583 132.828 51.225V51.5C132.828 52.5 133.045 53.3833 133.478 54.15C133.928 54.9 134.545 55.4917 135.328 55.925C136.128 56.3417 137.036 56.55 138.053 56.55C138.853 56.55 139.595 56.4083 140.278 56.125C140.978 55.8417 141.578 55.4083 142.078 54.825L143.078 55.975C142.495 56.675 141.761 57.2083 140.878 57.575C140.011 57.9417 139.053 58.125 138.003 58.125ZM152.966 58.125C151.666 58.125 150.499 57.8417 149.466 57.275C148.449 56.6917 147.649 55.9 147.066 54.9C146.483 53.8833 146.191 52.725 146.191 51.425C146.191 50.1083 146.483 48.95 147.066 47.95C147.649 46.95 148.449 46.1667 149.466 45.6C150.499 45.0333 151.666 44.75 152.966 44.75C154.083 44.75 155.091 44.9667 155.991 45.4C156.891 45.8333 157.599 46.4833 158.116 47.35L156.791 48.25C156.341 47.5833 155.783 47.0917 155.116 46.775C154.449 46.4583 153.724 46.3 152.941 46.3C152.008 46.3 151.166 46.5167 150.416 46.95C149.666 47.3667 149.074 47.9583 148.641 48.725C148.208 49.4917 147.991 50.3917 147.991 51.425C147.991 52.4583 148.208 53.3583 148.641 54.125C149.074 54.8917 149.666 55.4917 150.416 55.925C151.166 56.3417 152.008 56.55 152.941 56.55C153.724 56.55 154.449 56.3917 155.116 56.075C155.783 55.7583 156.341 55.275 156.791 54.625L158.116 55.525C157.599 56.375 156.891 57.025 155.991 57.475C155.091 57.9083 154.083 58.125 152.966 58.125ZM165.899 58.125C164.666 58.125 163.716 57.7917 163.049 57.125C162.383 56.4583 162.049 55.5167 162.049 54.3V41.975H163.824V54.2C163.824 54.9667 164.016 55.5583 164.399 55.975C164.799 56.3917 165.366 56.6 166.099 56.6C166.883 56.6 167.533 56.375 168.049 55.925L168.674 57.2C168.324 57.5167 167.899 57.75 167.399 57.9C166.916 58.05 166.416 58.125 165.899 58.125ZM159.699 46.35V44.875H167.824V46.35H159.699ZM175.431 58.125C174.347 58.125 173.322 57.975 172.356 57.675C171.389 57.3583 170.631 56.9667 170.081 56.5L170.881 55.1C171.414 55.5 172.097 55.85 172.931 56.15C173.764 56.4333 174.639 56.575 175.556 56.575C176.806 56.575 177.706 56.3833 178.256 56C178.806 55.6 179.081 55.075 179.081 54.425C179.081 53.9417 178.922 53.5667 178.606 53.3C178.306 53.0167 177.906 52.8083 177.406 52.675C176.906 52.525 176.347 52.4 175.731 52.3C175.114 52.2 174.497 52.0833 173.881 51.95C173.281 51.8167 172.731 51.625 172.231 51.375C171.731 51.1083 171.322 50.75 171.006 50.3C170.706 49.85 170.556 49.25 170.556 48.5C170.556 47.7833 170.756 47.1417 171.156 46.575C171.556 46.0083 172.139 45.5667 172.906 45.25C173.689 44.9167 174.639 44.75 175.756 44.75C176.606 44.75 177.456 44.8667 178.306 45.1C179.156 45.3167 179.856 45.6083 180.406 45.975L179.631 47.4C179.047 47 178.422 46.7167 177.756 46.55C177.089 46.3667 176.422 46.275 175.756 46.275C174.572 46.275 173.697 46.4833 173.131 46.9C172.581 47.3 172.306 47.8167 172.306 48.45C172.306 48.95 172.456 49.3417 172.756 49.625C173.072 49.9083 173.481 50.1333 173.981 50.3C174.497 50.45 175.056 50.575 175.656 50.675C176.272 50.775 176.881 50.9 177.481 51.05C178.097 51.1833 178.656 51.375 179.156 51.625C179.672 51.8583 180.081 52.2 180.381 52.65C180.697 53.0833 180.856 53.6583 180.856 54.375C180.856 55.1417 180.639 55.8083 180.206 56.375C179.789 56.925 179.172 57.3583 178.356 57.675C177.556 57.975 176.581 58.125 175.431 58.125Z" fill="black"/>
</svg>
